<?xml version="1.0" encoding="UTF-8" standalone="no"?>
<!-- Created with Inkscape (http://www.inkscape.org/) -->

<svg
   xmlns:osb="http://www.openswatchbook.org/uri/2009/osb"
   xmlns:dc="http://purl.org/dc/elements/1.1/"
   xmlns:cc="http://creativecommons.org/ns#"
   xmlns:rdf="http://www.w3.org/1999/02/22-rdf-syntax-ns#"
   xmlns:svg="http://www.w3.org/2000/svg"
   xmlns="http://www.w3.org/2000/svg"
   xmlns:sodipodi="http://sodipodi.sourceforge.net/DTD/sodipodi-0.dtd"
   xmlns:inkscape="http://www.inkscape.org/namespaces/inkscape"
   width="744.09448819"
   height="1052.3622047"
   id="svg2"
   version="1.1"
   inkscape:version="0.48.4 r9939"
   sodipodi:docname="Hawk.svg"
   inkscape:export-filename="/home/pogilvie/Dropbox/Projects/BayWing/data/Hawk.png"
   inkscape:export-xdpi="25.387545"
   inkscape:export-ydpi="25.387545">
  <defs
     id="defs4">
    <linearGradient
       id="linearGradient3977"
       osb:paint="solid">
      <stop
         style="stop-color:#000000;stop-opacity:1;"
         offset="0"
         id="stop3979" />
    </linearGradient>
  </defs>
  <sodipodi:namedview
     id="base"
     pagecolor="#ffffff"
     bordercolor="#666666"
     borderopacity="1.0"
     inkscape:pageopacity="0.0"
     inkscape:pageshadow="2"
     inkscape:zoom="0.35"
     inkscape:cx="-127.85714"
     inkscape:cy="520"
     inkscape:document-units="px"
     inkscape:current-layer="layer1"
     showgrid="false"
     inkscape:window-width="1301"
     inkscape:window-height="744"
     inkscape:window-x="65"
     inkscape:window-y="24"
     inkscape:window-maximized="1" />
  <metadata
     id="metadata7">
    <rdf:RDF>
      <cc:Work
         rdf:about="">
        <dc:format>image/svg+xml</dc:format>
        <dc:type
           rdf:resource="http://purl.org/dc/dcmitype/StillImage" />
        <dc:title></dc:title>
      </cc:Work>
    </rdf:RDF>
  </metadata>
  <g
     inkscape:label="Layer 1"
     inkscape:groupmode="layer"
     id="layer1">
    <path
       style="fill:#000000;fill-opacity:1;stroke:#ff0000;stroke-opacity:1"
       d="M 337.71428,768.66901 C 305.6927,764.83314 288.31144,760.7012 263.76923,751.0905 182.79699,719.38189 120.94811,647.42307 102.35462,563.29076 c -5.243509,-23.72599 -6.143859,-32.66986 -6.090329,-60.5 0.0533,-27.729 1.0895,-37.05548 6.937439,-62.44339 15.98406,-69.39228 64.05852,-132.74977 127.78492,-168.40816 41.42028,-23.17691 82.10581,-33.64845 130.73578,-33.64845 50.52717,0 91.21149,10.97654 135.60346,36.58551 5.43861,3.13744 11.23839,6.68238 12.88839,7.87765 31.11641,22.54082 54.43386,45.80131 71.2108,71.03684 9.80436,14.74753 11.30706,17.33795 19.07083,32.8752 11.97473,23.96442 21.50104,55.40871 25.33483,83.6248 1.6951,12.47561 1.6951,54.52439 0,67 -5.57867,41.0581 -20.02885,79.54246 -42.61721,113.5 -34.52079,51.89582 -82.54874,87.74004 -143.99925,107.46953 -9.98641,3.20626 -21.23433,5.67389 -39.38291,8.64004 -9.23927,1.51003 -53.70667,2.77617 -62.11709,1.76868 z m 58,-3.90697 c 39.69704,-5.49687 77.04396,-19.52027 110.15603,-41.36252 46.16816,-30.45463 80.62292,-72.81875 100.67218,-123.78224 21.35384,-54.27962 23.91793,-116.77323 7.04997,-171.82652 -29.53032,-96.38045 -109.7104,-166.5093 -210.34107,-183.97311 -32.83666,-5.69859 -69.45007,-4.26625 -102.53711,4.01131 -23.10923,5.78137 -35.90134,10.46529 -56.36859,20.63976 -34.03604,16.91965 -64.39846,41.51518 -88.82961,71.95773 -27.08379,33.74789 -46.3653,77.28246 -53.97386,121.86431 -2.830559,16.5855 -3.547729,50.77303 -1.4729,70.2132 7.23704,67.80764 42.6988,132.53519 96.14496,175.49121 43.35171,34.84286 91.3181,53.6783 149.5,58.70564 8.95268,0.77357 38.75853,-0.38216 50,-1.93877 z m -36,-36.91994 c 0,-0.79677 3.4875,-3.78929 7.75,-6.65006 25.03148,-16.79983 47.92042,-42.31125 63.16428,-70.40128 l 3.25607,-6 -10.04806,10.62302 c -26.13827,27.63391 -54.89995,44.74763 -90.56744,53.88925 -16.24205,4.16286 -24.49666,5.28842 -39.55485,5.39351 l -13.5,0.0942 -16.5,-8.08521 c -47.56063,-23.30532 -82.08601,-57.73916 -105.19371,-104.91479 -17.39279,-35.50833 -25.17232,-76.71294 -21.90109,-116 7.75003,-93.07676 71.01595,-171.39188 159.87202,-197.90108 23.77246,-7.09224 36.7462,-8.96123 62.72278,-9.03578 27.02443,-0.0776 37.5,0.85546 37.5,3.33998 0,1.23307 -2.37817,2.6965 -8.25,5.07671 -27.8712,11.2979 -61.08433,31.21048 -84.75,50.81099 -11.91895,9.87157 -37.7563,36.99377 -46.89157,49.22341 -18.3308,24.53995 -37.19936,60.51448 -38.79176,73.95982 -0.50915,4.29892 -0.31592,4.97428 1.8066,6.31447 2.02608,1.27929 12.98883,3.71148 16.72897,3.71148 0.77783,0 0.49042,-1.36817 -0.83192,-3.96016 -2.85841,-5.60296 -2.54871,-8.55299 1.85365,-17.65651 13.12273,-27.13613 41.32789,-61.82512 71.12715,-87.47791 23.46798,-20.2025 58.69886,-41.51043 87.35535,-52.83326 10.69315,-4.22511 37.31454,-12.7553 44.14353,-14.14475 l 6,-1.22078 13.83209,6.76368 c 14.47939,7.08019 30.36814,17.01378 41.78922,26.12648 6.93243,5.53127 8.45933,7.15591 7.56548,8.04975 -0.28242,0.28242 -4.26498,1.33968 -8.85014,2.34948 -21.70181,4.77941 -46.75647,17.20967 -71.16206,35.3053 -10.27233,7.61648 -11.6415,7.03915 -13.20968,-5.57006 -0.34634,-2.78485 -1.51382,-5.83917 -2.80631,-7.34177 l -2.21323,-2.57304 -4.91148,5.34178 c -2.70132,2.93797 -10.82041,11.64177 -18.04243,19.34177 -7.22202,7.7 -18.91364,20.1875 -25.98138,27.75 -7.06774,7.5625 -13.23797,13.75 -13.71164,13.75 -2.21415,0 -1.62303,-3.39824 1.75947,-10.115 9.03766,-17.9464 21.9046,-35.91227 37.32573,-52.11724 l 8.60781,-9.04533 -7.49572,4.83344 c -14.49692,9.34799 -22.60931,15.90114 -34.49573,27.86548 -12.61375,12.69642 -14.33059,15.20648 -30.49121,44.57865 -6.70087,12.17894 -8.79757,15.3175 -15.89909,23.79932 -4.69851,5.61176 -17.77502,14.40992 -24.3597,16.38974 -13.69105,4.1165 14.00092,3.46543 29.25,-0.6877 14.07111,-3.83231 14.41184,-3.86382 20.18082,-1.86602 4.00807,1.388 8.27702,1.84482 17.31918,1.85335 15.201,0.0143 21.40896,-1.8376 38.5,-11.48512 52.03936,-29.37509 84.49324,-39.93633 122.87166,-39.98525 21.50408,-0.0274 40.62767,3.36896 57.83764,10.27204 l 5.7907,2.3227 2.28536,7.94347 c 6.51068,22.62985 9.21959,42.13329 9.20099,66.24469 -0.0144,18.62551 -0.41555,22.19878 -2.4923,22.19878 -0.69998,0 -5.08912,-3.2625 -9.75364,-7.25 -9.94872,-8.50474 -21.61446,-15.65092 -33.37909,-20.44731 -11,-4.48466 -13.3548,-3.99858 -5.80035,1.19731 17.07584,11.74462 32.80752,33.20869 40.97594,55.90694 l 2.84546,7.90694 -1.69099,6.4473 c -5.53117,21.08882 -23.32178,54.70212 -39.42491,74.48882 -8.40606,10.32894 -8.83091,9.90782 -9.5843,-9.5 -2.91098,-74.98934 -25.46432,-122.04327 -66.50074,-138.74316 -11.98765,-4.87841 -21.72503,-6.41589 -40.68143,-6.42338 -17.43713,-0.007 -29.28866,1.41987 -45.61635,5.49156 -16.85919,4.20423 -40.71766,13.74984 -44.20668,17.68678 -1.77117,1.99856 -1.76406,2.07578 0.25,2.71502 3.8878,1.23394 2.08189,4.00102 -7.43577,11.39337 -11.7302,9.11082 -33.84497,30.26042 -43.22691,41.3403 -15.05297,17.77728 -27.05234,37.58992 -31.82014,52.53951 -0.9209,2.8875 -2.23598,5.25 -2.92241,5.25 -3.20507,0 -16.587,-17.29533 -23.38049,-30.21786 -12.62569,-24.01648 -15.53045,-58.46807 -7.73493,-91.73919 0.8321,-3.55138 1.36167,-6.6083 1.17682,-6.79315 -0.50099,-0.50099 -8.99912,16.28481 -12.02399,23.7502 -8.63334,21.30711 -9.85372,45.64086 -3.36017,67 5.47954,18.02376 19.60872,40.56357 35.27876,56.27905 8.21106,8.23485 16.34712,15.26481 16.91134,14.61222 0.18605,-0.2152 1.81856,-4.89127 3.62779,-10.39127 18.60255,-56.55111 48.07293,-97.0915 88.13312,-121.2387 12.62181,-7.60809 24.02312,-12.34908 38.99962,-16.21718 23.05861,-5.95552 37.84818,-6.38218 55.5303,-1.60197 16.26472,4.39703 25.72011,9.93844 36.55364,21.42255 7.73923,8.20399 14.52626,20.96347 17.65135,33.18419 4.80435,18.78751 5.28403,54.49663 1.10629,82.35789 -2.7944,18.63587 -9.38092,44.31472 -12.11227,47.2221 -2.37955,2.53292 -28.81268,16.37112 -31.2714,16.37112 -2.33329,0 -2.01187,-1.86166 1.74812,-10.12516 8.56763,-18.8295 15.46936,-43.58358 17.58895,-63.08543 1.35126,-12.43265 1.38355,-29.78941 0.0554,-29.78941 -0.55,0 -1.00315,1.2375 -1.00701,2.75 -0.0232,9.09154 -7.71179,31.17326 -16.37935,47.04144 -11.03789,20.20766 -37.29302,50.16625 -57.58914,65.71246 -5.90046,4.51957 -7.09929,5.02274 -13.5,5.66624 -12.74446,1.28127 -22.5245,1.01259 -22.5245,-0.6188 z m 20.77908,-2.51846 c 8.16468,-0.93878 8.38576,-1.03865 16,-7.22748 10.00954,-8.13573 28.18194,-26.27048 35.87975,-35.8054 22.07643,-27.34507 34.06263,-55.64363 35.98348,-84.95439 1.15152,-17.57143 3.90381,-11.03421 5.87505,13.95439 1.88042,23.83729 -5.90228,62.95515 -17.41167,87.51553 l -3.8482,8.21186 8.62125,-4.48452 c 4.74169,-2.46648 11.2161,-6.07363 14.38757,-8.0159 6.45934,-3.9558 6.38369,-3.79119 11.13419,-24.22697 6.65534,-28.63006 9.00074,-59.46807 6.52942,-85.8507 -3.11347,-33.23782 -15.79411,-54.00003 -40.60892,-66.48965 -21.46509,-10.80366 -46.60719,-11.33212 -75.75661,-1.59233 -42.80498,14.30256 -75.07714,43.49771 -99.4215,89.9421 -6.89742,13.15895 -15.72256,34.4265 -19.62853,47.30243 -1.47022,4.84651 -3.31699,9.05892 -4.10394,9.3609 -2.09037,0.80215 -7.4578,-3.56362 -20.45591,-16.63847 -36.4254,-36.64046 -47.95709,-78.27224 -33.80258,-122.03428 3.80299,-11.75786 18.82293,-39 21.50262,-39 2.32029,0 2.17787,1.57852 -1.13009,12.52561 -4.62289,15.29859 -6.60203,28.19966 -6.62573,43.18984 -0.0493,31.21206 8.04147,52.80946 29.4459,78.60206 l 2.33816,2.81751 2.28779,-6.31751 c 8.92865,-24.65562 30.76361,-53.49857 59.80657,-79.00166 6.46124,-5.67372 14.09637,-12.08953 16.96695,-14.25736 4.98843,-3.7672 5.14413,-4.02451 3.52074,-5.81834 -2.88957,-3.19294 -0.0112,-6.59182 9.75455,-11.51848 21.40975,-10.80086 58.08546,-19.22167 83.71743,-19.22167 19.33374,0 32.74628,2.81653 47.76318,10.0299 30.88219,14.83427 49.92523,46.96741 58.44906,98.6267 1.63539,9.91139 3.12177,26.44285 4.31871,48.03227 l 0.23223,4.18888 6.4642,-8.68888 c 14.4719,-19.45243 26.91449,-42.77642 33.54461,-62.88028 l 3.69085,-11.1914 -1.71666,-5.3086 c -8.64373,-26.72993 -28.53376,-51.0496 -52.35278,-64.01208 -1.72162,-0.93692 -3.13022,-2.42699 -3.13022,-3.31127 0,-1.34822 0.76685,-1.49641 4.75,-0.91789 18.44161,2.67848 35.80237,11.16003 54.22493,26.49144 l 5.85149,4.86967 0.7109,-8.53429 c 1.71491,-20.58721 -2.80042,-54.02921 -10.3147,-76.39417 l -1.84792,-5.5 -11.43735,-3.80716 c -16.15937,-5.37898 -30.87877,-7.69284 -48.93735,-7.69284 -35.67061,0 -71.03397,10.99906 -112.5,34.99087 -14.17294,8.20031 -26.40247,13.80208 -34,15.57378 -8.85498,2.06493 -26.66996,1.53191 -33.88856,-1.01395 -4.81626,-1.69859 -5.00175,-1.68668 -12.54177,0.80532 -12.04926,3.98232 -29.42984,5.6043 -42.81967,3.996 -4.08746,-0.49097 -5.25,-1.01714 -5.25,-2.37621 0,-1.22419 1.56818,-2.25123 5.25,-3.43835 22.69144,-7.31639 32.68756,-17.56779 51.71675,-53.03746 6.60513,-12.31171 7.93225,-14.40623 14.58133,-23.01301 12.21841,-15.8159 31.68214,-31.60502 54.64787,-44.33076 6.04331,-3.34871 8.81898,-3.9513 8.78057,-1.90623 -0.0129,0.6875 -4.79456,5.975 -10.62587,11.75 -16.24502,16.08813 -32.68963,37.4344 -39.28908,51 l -2.18917,4.5 5.8138,-6.07431 c 3.19759,-3.34087 12.29799,-13.01587 20.22312,-21.5 28.13494,-30.11945 30.21236,-32.11197 32.80249,-31.46189 3.33696,0.83753 5.9357,5.70394 6.71249,12.56984 0.36746,3.24799 1.06223,6.14902 1.54392,6.44672 0.48169,0.2977 5.52339,-2.77283 11.20379,-6.82339 13.32862,-9.50434 27.86661,-17.98659 39.92699,-23.29558 10.02982,-4.41513 25.67363,-9.36139 29.60777,-9.36139 3.61355,0 2.75598,-1.46325 -3.95677,-6.75135 -12.54561,-9.88303 -31.89592,-21.45601 -45.55692,-27.24654 l -7.30692,-3.0972 -12.97132,3.54346 c -52.42723,14.3219 -100.30239,42.24999 -139.59035,81.43038 -20.8322,20.77516 -40.2619,46.61244 -51.00578,67.8266 -4.39852,8.68502 -4.59725,9.41985 -3.51579,13 0.63043,2.08706 2.28268,5.01251 3.67166,6.50101 2.55923,2.74259 3.35908,5.79364 1.51884,5.79364 -2.82235,0 -21.13769,-3.10435 -23.40804,-3.96754 -8.05231,-3.06148 -5.35693,-15.85161 9.51882,-45.16873 28.21801,-55.61206 76.76216,-102.22578 137.79716,-132.31747 5.82925,-2.87396 13.19123,-6.28249 16.35994,-7.57452 9.37006,-3.82059 6.44087,-4.47254 -20.06107,-4.465 -28.63853,0.008 -45.19428,2.27468 -66.70023,9.13144 -47.27186,15.07174 -86.79658,43.49808 -115.21323,82.86182 -14.69268,20.35281 -27.90646,47.62147 -33.79245,69.7359 -11.35023,42.64429 -10.80351,84.19459 1.66137,126.2641 3.11513,10.51368 12.94933,32.87287 19.38515,44.07438 23.63936,41.14416 60.53852,74.51855 102.95916,93.12404 13.39778,5.8762 14.66742,6.03843 33.07632,4.22625 41.1992,-4.05565 76.38294,-19.74848 106.75761,-47.61657 8.32439,-7.63744 19.8287,-20.40854 25.76032,-28.5969 3.01066,-4.1561 5.90575,-5.69341 5.90575,-3.136 0,3.23569 -11.2791,24.83084 -18.91885,36.22234 -13.83077,20.62284 -30.10386,37.9105 -47.92497,50.91295 -4.2109,3.07231 -8.08368,5.9693 -8.60618,6.43776 -1.2378,1.10978 2.88669,1.07381 13.22908,-0.11537 z M 228.27071,515.54076 c -0.92177,-4.20737 1.08965,-12.80602 4.48639,-19.17896 3.69839,-6.9389 8.60702,-13.07104 10.46303,-13.07104 1.93444,0 8.49415,8.30508 8.49415,10.75422 0,1.25677 -1.2739,2.79985 -3.29678,3.99338 -1.81323,1.06983 -6.42573,6.06404 -10.25,11.09825 -3.82427,5.03421 -7.47997,9.15334 -8.12376,9.15363 -0.6438,2.9e-4 -1.44167,-1.23698 -1.77303,-2.74948 z m 6.43571,-7.23774 c 1.76034,-2.74326 5.6008,-7.18137 8.53435,-9.86247 l 5.33372,-4.87472 -2.18011,-3.12026 c -1.19905,-1.71614 -2.47979,-3.12803 -2.84607,-3.13753 -1.16353,-0.0302 -6.4774,7.29367 -9.17835,12.65008 -2.41694,4.79319 -4.58676,13.33264 -3.38773,13.33264 0.28796,0 1.96384,-2.24449 3.72419,-4.98774 z m 101.75786,-47.70159 c -2.559,-0.66873 -2.15302,-3.28175 1.37734,-8.86489 9.05942,-14.32719 24.78941,-29.65579 49.37266,-48.1128 14.23315,-10.6862 16.00994,-11.66292 18.66837,-10.26214 1.2824,0.67571 2.63316,1.69205 3.00169,2.25853 0.40986,0.63002 2.14703,-0.0966 4.47368,-1.87121 15.69474,-11.97096 36.77263,-23.05966 55.92557,-29.42145 16.56209,-5.50121 32.20336,-8.03671 49.57781,-8.03671 13.93147,0 13.95147,0.003 16.49875,2.75 4.42113,4.7672 12.77809,16.38448 19.21351,26.70935 5.99804,9.62313 7.98194,14.03266 6.8312,15.1834 -0.30229,0.30229 -3.61883,-0.14236 -7.3701,-0.9881 -3.75126,-0.84575 -12.56077,-2.08845 -19.57667,-2.76156 -14.68621,-1.409 -35.42521,-0.0939 -49.28995,3.12546 -9.22949,2.1431 -26.72179,8.29378 -36.95386,12.99379 -7.52725,3.45758 -25.21211,13.71283 -26.08616,15.12706 -0.29253,0.47333 -1.40532,0.8606 -2.47286,0.8606 -3.05955,0 -2.34764,-2.91918 2.44136,-10.01068 8.9536,-13.25838 21.39227,-26.22724 32.00721,-33.37151 4.88461,-3.28753 3.49143,-3.29763 -6.21323,-0.045 -8.79635,2.94816 -22.12699,10.33575 -30.23725,16.75691 -5.0569,4.00371 -5.67926,4.93607 -6.86637,10.28654 -3.28421,14.80239 -10.45793,23.85933 -28.303,35.73303 -9.64693,6.41885 -14.91474,8.93253 -23.29239,11.11463 -5.45526,1.42092 -18.64921,1.9125 -22.72731,0.84678 z m 20.9462,-3.80129 c 11.73327,-2.7667 23.31153,-9.48273 37.407,-21.69812 6.72258,-5.8259 10.26571,-11.99319 12.91873,-22.48674 2.21384,-8.75647 2.49634,-9.08109 15.47807,-17.78587 12.11346,-8.12258 28.54345,-14.53865 37.2299,-14.53865 4.89452,0 4.06184,2.04793 -2.80034,6.88727 -8.55575,6.03369 -19.08004,16.1764 -27.08392,26.10197 -7.38537,9.15856 -8.4135,11.22923 -4.09564,8.24865 5.36101,-3.70065 21.88114,-12.03711 31.17682,-15.7326 28.44316,-11.30753 64.78878,-15.29945 90.65433,-9.95678 4.16772,0.86087 7.96441,1.42713 8.43709,1.25835 1.29377,-0.46195 -7.48922,-14.63541 -16.51824,-26.65612 l -8,-10.65074 -16.5,0.10703 c -18.24287,0.11834 -29.90989,1.99867 -46.5,7.49424 -13.16932,4.36242 -33.50944,14.7148 -45.35362,23.08334 -15.56596,10.99818 -15.03919,10.74621 -16.86115,8.06539 -0.84105,-1.2375 -2.19893,-2.25 -3.01751,-2.25 -3.20002,0 -29.5165,20.53017 -43.7103,34.09953 -9.75952,9.33016 -21.55742,23.81224 -21.55742,26.46202 0,1.9446 10.35057,1.91572 18.6962,-0.0522 z"
       id="path3207"
       inkscape:connector-curvature="0" />
    <path
       style="fill:#000000;fill-opacity:1;stroke:#ff0000;stroke-width:2.85714293;stroke-miterlimit:4;stroke-opacity:1;stroke-dasharray:none;stroke-dashoffset:0"
       d="m 343,454.81121 c 0,-3.45367 28.20459,-31.42932 43.79999,-43.44448 19.99143,-15.40197 25.36651,-13.63293 16.87872,5.55512 -5.95352,13.45894 -22.32137,28.26546 -38.90638,35.19512 C 354.67814,456.33459 343,457.77971 343,454.81121 z"
       id="path3987"
       inkscape:connector-curvature="0" />
    <path
       style="fill:#000000;fill-opacity:1;stroke:#000000;stroke-width:2.85714293000000019;stroke-miterlimit:4;stroke-opacity:1;stroke-dasharray:none;stroke-dashoffset:0"
       d="M 311.57143,759.53455 C 210.07596,737.00261 134.53185,665.15764 108.45305,566.36218 c -8.627424,-32.68365 -8.732328,-90.5924 -0.22418,-123.7523 22.83256,-88.98829 88.38336,-158.99312 175.37829,-187.29486 89.38475,-29.0792 186.34144,-6.12333 257.5351,60.97508 34.68834,32.69301 60.7946,76.92876 73.75577,124.97556 7.86026,29.1379 8.64488,89.87052 1.5326,118.63169 -24.49329,99.04789 -95.42783,171.337 -193.20474,196.89426 -31.98412,8.36012 -80.93496,9.56266 -111.65446,2.74294 l 0,0 z m 91.14891,-40.3634 c 20.06292,-15.85882 44.43183,-46.10271 56.36349,-69.95182 l 10.00597,-20 -1.83043,14.28571 c -1.00674,7.85714 -5.59123,25.16571 -10.18777,38.46346 -4.59651,13.29777 -8.35731,25.19063 -8.35731,26.42857 0,4.38011 9.32942,2.15437 22.86688,-5.4554 10.56466,-5.93869 14.37714,-10.03452 16.62183,-17.85714 12.02006,-41.88963 14.42971,-102.36058 5.07243,-127.29378 -20.38563,-54.319 -79.6998,-68.17126 -144.99156,-33.86142 -36.99206,19.43877 -77.45672,71.8232 -91.38148,118.29988 -1.85807,6.20172 -4.26329,11.27583 -5.34492,11.27583 -4.18603,0 -24.15277,-21.83337 -34.2416,-37.44277 -5.82238,-9.00834 -12.21278,-22.18857 -14.20088,-29.2894 -4.38025,-15.64469 -2.76174,-50.92729 2.94426,-64.18336 3.90868,-9.08056 4.08492,-8.285 4.11426,18.57142 0.0226,20.60557 1.49752,32.03431 5.55311,43.02697 5.61248,15.21257 23.08633,40.84308 29.20793,42.842 1.84972,0.604 6.02214,-4.91297 9.27206,-12.25995 9.65491,-21.82651 30.12975,-48.06108 55.95803,-71.6994 13.34516,-12.21362 24.26393,-23.82934 24.26393,-25.81268 0,-7.47922 33.36585,-19.50633 65.19474,-23.5002 24.8446,-3.11749 53.25483,0.2398 68.6976,8.11812 31.57598,16.10885 52.93586,61.06162 56.6684,119.26094 2.56215,39.9504 4.45689,40.6434 25.31989,9.26097 15.12009,-22.74386 29.6586,-54.7676 29.72017,-65.46409 0.056,-9.7256 -15.31117,-39.34846 -26.30851,-50.71428 -12.23449,-12.64443 -6.41892,-11.6769 12.88014,2.14285 8.77791,6.28572 17.54103,11.42857 19.47363,11.42857 2.67917,0 3.08446,-7.63465 1.70626,-32.14285 -0.99415,-17.67857 -2.99463,-36.64286 -4.44552,-42.14286 -1.45086,-5.5 -3.404,-13.43187 -4.34031,-17.62637 -2.82392,-12.65076 -23.73135,-18.11085 -68.8522,-17.98113 -43.73969,0.12574 -54.64923,3.20962 -108.57143,30.69056 l -34.28572,17.47339 -28.57142,0.3015 C 323,466.52882 305,467.6717 298.71429,468.90273 l -11.42858,2.23824 8.57143,-5.55174 c 11.98668,-7.76382 16.38989,-13.24821 32.74365,-40.78369 7.89118,-13.28671 21.00858,-30.90113 29.14978,-39.14318 15.41019,-15.6011 22.47397,-18.44177 10.51403,-4.22818 -10.0898,11.99105 -24.07451,39.93725 -21.32556,42.61569 1.30525,1.27178 16.06801,-12.25118 32.80615,-30.05099 16.73812,-17.79982 31.3893,-31.40696 32.55818,-30.2381 1.16886,1.16887 2.1252,4.52271 2.1252,7.45298 0,9.93873 7.52712,8.27415 31.96612,-7.06913 13.40994,-8.41902 33.5606,-18.20421 44.77922,-21.74487 11.21863,-3.54066 20.39752,-7.51267 20.39752,-8.82669 0,-6.34673 -55.95783,-40.09032 -66.38529,-40.03156 -10.80714,0.0609 -50.82403,13.94104 -74.86727,25.96822 -44.65399,22.33732 -83.94426,55.70369 -114.55067,97.27956 -15.03153,20.41889 -25.29439,41.16287 -23.14109,46.7743 1.09868,2.86311 -0.22181,4.22716 -4.09217,4.22716 -9.71193,0 -9.41513,-7.7531 1.14829,-29.99667 28.08016,-59.12884 74.25256,-105.16081 138.67317,-138.25141 15.91111,-8.17299 28.92931,-16.03098 28.92931,-17.4622 0,-7.66255 -55.97848,-6.74424 -90.94753,1.49198 -21.07379,4.96348 -54.58273,19.88564 -72.79901,32.41877 -98.51809,67.78223 -127.62772,199.76211 -67.13187,304.36856 16.7613,28.98283 54.30279,65.21197 85.41687,82.43097 22.1235,12.24349 26.32191,13.57143 42.90687,13.57143 34.37899,0 83.72148,-18.63408 110.86496,-41.86788 6.42934,-5.50329 11.68971,-8.83917 11.68971,-7.41309 0,4.41649 -30.41717,36.46646 -45.5904,48.03772 -7.92528,6.04388 -14.4096,12.0104 -14.4096,13.25894 0,1.24851 6.95598,2.27003 15.45772,2.27003 13.73037,0 17.0802,-1.28252 29.97691,-11.47675 z m -17.5808,-270.1339 c 12.61895,-8.6368 18.2048,-14.88656 24.07223,-26.93337 6.70689,-13.77035 21.62623,-28.59884 28.77403,-28.59884 1.25946,0 -2.88283,6.54403 -9.20509,14.54228 -11.11362,14.0598 -14.4254,22.60058 -8.7636,22.60058 1.50229,0 9.29452,-3.86974 17.31606,-8.59941 29.12729,-17.17407 46.09486,-21.29502 87.80969,-21.32653 23.50923,-0.0177 37.85963,-1.12007 37.86374,-2.90847 0.0143,-6.40038 -26.71406,-41.59171 -32.73837,-43.10371 -20.35389,-5.10851 -78.74014,11.22859 -106.80863,29.88621 -6.81866,4.53248 -14.65614,7.65024 -17.41663,6.92836 -10.537,-2.75549 -71.6144,53.17836 -71.6144,65.58349 0,5.14509 1.54666,5.54356 17.13954,4.41567 14.13035,-1.0221 20.02449,-3.21431 33.57143,-12.48626 z"
       id="path3989"
       inkscape:connector-curvature="0" />
  </g>
</svg>
